<?xml version="1.0" encoding="UTF-8"?>
<svg width="48" height="48" viewBox="0 0 48 48" fill="none" xmlns="http://www.w3.org/2000/svg">
    <path d="M42 24C42 33.9411 33.9411 42 24 42C14.0589 42 6 33.9411 6 24C6 14.0589 14.0589 6 24 6C33.9411 6 42 14.0589 42 24Z" fill="#FF5722"/>
    <path d="M24 28C26.2091 28 28 26.2091 28 24C28 21.7909 26.2091 20 24 20C21.7909 20 20 21.7909 20 24C20 26.2091 21.7909 28 24 28Z" fill="white"/>
    <path d="M16 32L20 28M28 28L32 32" stroke="white" stroke-width="2" stroke-linecap="round"/>
    <path d="M24 14V18M18 16L22 18M30 16L26 18" stroke="white" stroke-width="2" stroke-linecap="round"/>
</svg>
