<?xml version="1.0" encoding="UTF-8"?>
<svg width="48" height="48" viewBox="0 0 48 48" fill="none" xmlns="http://www.w3.org/2000/svg">
    <path d="M24 4C12.95 4 4 12.95 4 24C4 35.05 12.95 44 24 44C35.05 44 44 35.05 44 24C44 12.95 35.05 4 24 4Z" fill="#FF5722"/>
    <path d="M24 16C26.21 16 28 14.21 28 12C28 9.79 26.21 8 24 8C21.79 8 20 9.79 20 12C20 14.21 21.79 16 24 16Z" fill="white"/>
    <path d="M32 24C30.89 24 30 24.89 30 26C30 27.11 30.89 28 32 28C33.11 28 34 27.11 34 26C34 24.89 33.11 24 32 24Z" fill="white"/>
    <path d="M16 24C14.89 24 14 24.89 14 26C14 27.11 14.89 28 16 28C17.11 28 18 27.11 18 26C18 24.89 17.11 24 16 24Z" fill="white"/>
    <path d="M24 32C27.31 32 30 34.69 30 38H18C18 34.69 20.69 32 24 32Z" fill="white"/>
</svg>
