<?xml version="1.0" encoding="UTF-8"?>
<svg width="48" height="48" viewBox="0 0 48 48" fill="none" xmlns="http://www.w3.org/2000/svg">
    <!-- Outer decorative ring -->
    <path d="M24 46C36.1503 46 46 36.1503 46 24C46 11.8497 36.1503 2 24 2C11.8497 2 2 11.8497 2 24C2 36.1503 11.8497 46 24 46Z" fill="#FF5722"/>
    <path d="M24 44C35.0457 44 44 35.0457 44 24C44 12.9543 35.0457 4 24 4C12.9543 4 4 12.9543 4 24C4 35.0457 12.9543 44 24 44Z" fill="white"/>
    
    <!-- Main Q circle with bevel effect -->
    <path d="M24 42C33.9411 42 42 33.9411 42 24C42 14.0589 33.9411 6 24 6C14.0589 6 6 14.0589 6 24C6 33.9411 14.0589 42 24 42Z" fill="#FF5722"/>
    <path d="M24 40C32.8366 40 40 32.8366 40 24C40 15.1634 32.8366 8 24 8C15.1634 8 8 15.1634 8 24C8 32.8366 15.1634 40 24 40Z" fill="white"/>
    
    <!-- Microphone body with details -->
    <path d="M20 14C20 12.8954 20.8954 12 22 12H26C27.1046 12 28 12.8954 28 14V26C28 27.1046 27.1046 28 26 28H22C20.8954 28 20 27.1046 20 26V14Z" fill="#FF5722"/>
    
    <!-- Microphone grill details -->
    <rect x="22" y="15" width="4" height="1" fill="white" opacity="0.3"/>
    <rect x="22" y="17" width="4" height="1" fill="white" opacity="0.3"/>
    <rect x="22" y="19" width="4" height="1" fill="white" opacity="0.3"/>
    <rect x="22" y="21" width="4" height="1" fill="white" opacity="0.3"/>
    
    <!-- Microphone base with bevel -->
    <path d="M16 26C16 25.4477 16.4477 25 17 25H31C31.5523 25 32 25.4477 32 26V27C32 27.5523 31.5523 28 31 28H17C16.4477 28 16 27.5523 16 27V26Z" fill="#FF5722"/>
    
    <!-- Decorative ring around mic base -->
    <rect x="18" y="26" width="12" height="1" fill="white" opacity="0.3"/>
    
    <!-- Q tail / Mic cord with ornate curve -->
    <path d="M24 28C26 30 30 32 34 34C38 36 41 37 44 38" 
          stroke="#FF5722" 
          stroke-width="3" 
          stroke-linecap="round"
          filter="url(#shadow)"/>
    
    <!-- Shadow filter for depth -->
    <defs>
        <filter id="shadow" x="-2" y="-2" width="52" height="52">
            <feDropShadow dx="0" dy="1" stdDeviation="0.5" flood-opacity="0.3"/>
        </filter>
    </defs>
</svg>
