<?xml version="1.0" encoding="UTF-8"?>
<svg width="48" height="48" viewBox="0 0 48 48" fill="none" xmlns="http://www.w3.org/2000/svg">
    <path d="M24 4C12.95 4 4 12.95 4 24C4 35.05 12.95 44 24 44C35.05 44 44 35.05 44 24C44 12.95 35.05 4 24 4Z" fill="#FF5722"/>
    <path d="M24 12L28 20H20L24 12Z" fill="white"/>
    <path d="M16 22C17.1046 22 18 22.8954 18 24C18 25.1046 17.1046 26 16 26C14.8954 26 14 25.1046 14 24C14 22.8954 14.8954 22 16 22Z" fill="white"/>
    <path d="M32 22C33.1046 22 34 22.8954 34 24C34 25.1046 33.1046 26 32 26C30.8954 26 30 25.1046 30 24C30 22.8954 30.8954 22 32 22Z" fill="white"/>
    <path d="M18 32C18 32 21 36 24 36C27 36 30 32 30 32" stroke="white" stroke-width="2" stroke-linecap="round"/>
</svg>
