<?xml version="1.0" encoding="UTF-8"?>
<svg width="48" height="48" viewBox="0 0 48 48" fill="none" xmlns="http://www.w3.org/2000/svg">
    <path d="M24 4C12.95 4 4 12.95 4 24C4 35.05 12.95 44 24 44C35.05 44 44 35.05 44 24C44 12.95 35.05 4 24 4ZM24 40C15.18 40 8 32.82 8 24C8 15.18 15.18 8 24 8C32.82 8 40 15.18 40 24C40 32.82 32.82 40 24 40Z" fill="#FF5722"/>
    <path d="M24 28C27.31 28 30 25.31 30 22C30 18.69 27.31 16 24 16C20.69 16 18 18.69 18 22C18 25.31 20.69 28 24 28Z" fill="#FF5722"/>
    <path d="M15 32C13.34 32 12 33.34 12 35C12 36.66 13.34 38 15 38C16.66 38 18 36.66 18 35C18 33.34 16.66 32 15 32Z" fill="#FF5722"/>
    <path d="M33 32C31.34 32 30 33.34 30 35C30 36.66 31.34 38 33 38C34.66 38 36 36.66 36 35C36 33.34 34.66 32 33 32Z" fill="#FF5722"/>
</svg>
